%TF.GenerationSoftware,KiCad,Pcbnew,7.0.2*%
%TF.CreationDate,2023-05-11T17:40:05+02:00*%
%TF.ProjectId,buckConverterPrj,6275636b-436f-46e7-9665-727465725072,rev?*%
%TF.SameCoordinates,Original*%
%TF.FileFunction,Soldermask,Top*%
%TF.FilePolarity,Negative*%
%FSLAX46Y46*%
G04 Gerber Fmt 4.6, Leading zero omitted, Abs format (unit mm)*
G04 Created by KiCad (PCBNEW 7.0.2) date 2023-05-11 17:40:05*
%MOMM*%
%LPD*%
G01*
G04 APERTURE LIST*
G04 Aperture macros list*
%AMRoundRect*
0 Rectangle with rounded corners*
0 $1 Rounding radius*
0 $2 $3 $4 $5 $6 $7 $8 $9 X,Y pos of 4 corners*
0 Add a 4 corners polygon primitive as box body*
4,1,4,$2,$3,$4,$5,$6,$7,$8,$9,$2,$3,0*
0 Add four circle primitives for the rounded corners*
1,1,$1+$1,$2,$3*
1,1,$1+$1,$4,$5*
1,1,$1+$1,$6,$7*
1,1,$1+$1,$8,$9*
0 Add four rect primitives between the rounded corners*
20,1,$1+$1,$2,$3,$4,$5,0*
20,1,$1+$1,$4,$5,$6,$7,0*
20,1,$1+$1,$6,$7,$8,$9,0*
20,1,$1+$1,$8,$9,$2,$3,0*%
G04 Aperture macros list end*
%ADD10R,1.700000X1.700000*%
%ADD11O,1.700000X1.700000*%
%ADD12C,2.700000*%
%ADD13RoundRect,0.237500X0.300000X0.237500X-0.300000X0.237500X-0.300000X-0.237500X0.300000X-0.237500X0*%
%ADD14RoundRect,0.237500X0.237500X-0.300000X0.237500X0.300000X-0.237500X0.300000X-0.237500X-0.300000X0*%
%ADD15RoundRect,0.240000X-1.760000X-2.760000X1.760000X-2.760000X1.760000X2.760000X-1.760000X2.760000X0*%
%ADD16R,2.500000X3.250000*%
%ADD17RoundRect,0.237500X0.250000X0.237500X-0.250000X0.237500X-0.250000X-0.237500X0.250000X-0.237500X0*%
%ADD18RoundRect,0.225000X-0.375000X0.225000X-0.375000X-0.225000X0.375000X-0.225000X0.375000X0.225000X0*%
%ADD19RoundRect,0.237500X-0.250000X-0.237500X0.250000X-0.237500X0.250000X0.237500X-0.250000X0.237500X0*%
%ADD20RoundRect,0.150000X-0.150000X0.825000X-0.150000X-0.825000X0.150000X-0.825000X0.150000X0.825000X0*%
%ADD21RoundRect,0.237500X-0.237500X0.250000X-0.237500X-0.250000X0.237500X-0.250000X0.237500X0.250000X0*%
%ADD22RoundRect,0.150000X0.587500X0.150000X-0.587500X0.150000X-0.587500X-0.150000X0.587500X-0.150000X0*%
%ADD23RoundRect,0.237500X-0.237500X0.300000X-0.237500X-0.300000X0.237500X-0.300000X0.237500X0.300000X0*%
%ADD24RoundRect,0.250000X1.500000X0.550000X-1.500000X0.550000X-1.500000X-0.550000X1.500000X-0.550000X0*%
%ADD25RoundRect,0.250000X-0.550000X1.500000X-0.550000X-1.500000X0.550000X-1.500000X0.550000X1.500000X0*%
%ADD26RoundRect,0.250000X0.412500X0.650000X-0.412500X0.650000X-0.412500X-0.650000X0.412500X-0.650000X0*%
G04 APERTURE END LIST*
D10*
%TO.C,JP_ith2*%
X88900000Y-86360000D03*
D11*
X88900000Y-83820000D03*
%TD*%
D12*
%TO.C,REF\u002A\u002A*%
X143510000Y-96520000D03*
%TD*%
D10*
%TO.C,TPgate1*%
X116840000Y-78740000D03*
%TD*%
D12*
%TO.C,REF\u002A\u002A*%
X78740000Y-96520000D03*
%TD*%
D10*
%TO.C,GND1*%
X143510000Y-90170000D03*
%TD*%
%TO.C,GND4*%
X123190000Y-83820000D03*
%TD*%
%TO.C,TPith1*%
X83820000Y-80010000D03*
%TD*%
D13*
%TO.C,Cb1*%
X101192500Y-99060000D03*
X99467500Y-99060000D03*
%TD*%
D14*
%TO.C,Cc2*%
X88900000Y-91895000D03*
X88900000Y-90170000D03*
%TD*%
D12*
%TO.C,REF\u002A\u002A*%
X143510000Y-63500000D03*
%TD*%
D15*
%TO.C,Rsen1*%
X110800000Y-71120000D03*
X101600000Y-71120000D03*
%TD*%
D16*
%TO.C,L1*%
X134620000Y-71120000D03*
X140620000Y-71120000D03*
%TD*%
D17*
%TO.C,R1div1*%
X101600000Y-81280000D03*
X99775000Y-81280000D03*
%TD*%
D18*
%TO.C,D1*%
X124460000Y-71120000D03*
X124460000Y-74420000D03*
%TD*%
D10*
%TO.C,IN1*%
X78740000Y-66850000D03*
D11*
X78740000Y-69390000D03*
%TD*%
D14*
%TO.C,Cc1*%
X83820000Y-91895000D03*
X83820000Y-90170000D03*
%TD*%
D19*
%TO.C,Rgate1*%
X112475000Y-78740000D03*
X114300000Y-78740000D03*
%TD*%
D10*
%TO.C,TPfb1*%
X107950000Y-87630000D03*
%TD*%
%TO.C,GND2*%
X78740000Y-73660000D03*
%TD*%
D20*
%TO.C,U1*%
X104140000Y-88900000D03*
X102870000Y-88900000D03*
X101600000Y-88900000D03*
X100330000Y-88900000D03*
X100330000Y-93850000D03*
X101600000Y-93850000D03*
X102870000Y-93850000D03*
X104140000Y-93850000D03*
%TD*%
D10*
%TO.C,TPdrv1*%
X109220000Y-96520000D03*
%TD*%
%TO.C,GND3*%
X88900000Y-99060000D03*
%TD*%
D17*
%TO.C,R2div1*%
X106680000Y-83820000D03*
X104855000Y-83820000D03*
%TD*%
D21*
%TO.C,Rc2*%
X88900000Y-94337500D03*
X88900000Y-96162500D03*
%TD*%
D10*
%TO.C,JP_L1*%
X128270000Y-71120000D03*
D11*
X130810000Y-71120000D03*
%TD*%
D22*
%TO.C,Q1*%
X120317500Y-73672500D03*
X120317500Y-71772500D03*
X118442500Y-72722500D03*
%TD*%
D10*
%TO.C,TPrsen1*%
X109220000Y-78740000D03*
%TD*%
%TO.C,TPout1*%
X144780000Y-69850000D03*
%TD*%
D14*
%TO.C,Csen1*%
X111760000Y-90625000D03*
X111760000Y-88900000D03*
%TD*%
D23*
%TO.C,Cin2*%
X95250000Y-67717500D03*
X95250000Y-69442500D03*
%TD*%
D10*
%TO.C,JP_Rfb1*%
X105410000Y-80010000D03*
D11*
X105410000Y-77470000D03*
%TD*%
D13*
%TO.C,Cfb1*%
X101550000Y-83820000D03*
X99825000Y-83820000D03*
%TD*%
D21*
%TO.C,Rc1*%
X83820000Y-94337500D03*
X83820000Y-96162500D03*
%TD*%
D10*
%TO.C,TPin1*%
X85090000Y-64770000D03*
%TD*%
%TO.C,TPsw1*%
X93980000Y-99060000D03*
%TD*%
%TO.C,TPL1*%
X121920000Y-66040000D03*
%TD*%
%TO.C,OUT1*%
X143510000Y-80010000D03*
D11*
X143510000Y-82550000D03*
%TD*%
D24*
%TO.C,Cout1*%
X137322500Y-81280000D03*
X131922500Y-81280000D03*
%TD*%
D14*
%TO.C,Cc3*%
X93980000Y-91895000D03*
X93980000Y-90170000D03*
%TD*%
D21*
%TO.C,Rc3*%
X93980000Y-94337500D03*
X93980000Y-96162500D03*
%TD*%
D12*
%TO.C,REF\u002A\u002A*%
X92710000Y-63500000D03*
%TD*%
D25*
%TO.C,Cin1*%
X88900000Y-68420000D03*
X88900000Y-73820000D03*
%TD*%
D26*
%TO.C,Cout2*%
X135890000Y-88900000D03*
X132765000Y-88900000D03*
%TD*%
D10*
%TO.C,JP_ith3*%
X93980000Y-86360000D03*
D11*
X93980000Y-83820000D03*
%TD*%
D17*
%TO.C,R1div2*%
X101600000Y-78740000D03*
X99775000Y-78740000D03*
%TD*%
D10*
%TO.C,JP_ith1*%
X83820000Y-86360000D03*
D11*
X83820000Y-83820000D03*
%TD*%
M02*
