%TF.GenerationSoftware,KiCad,Pcbnew,7.0.2*%
%TF.CreationDate,2023-05-11T17:40:05+02:00*%
%TF.ProjectId,buckConverterPrj,6275636b-436f-46e7-9665-727465725072,rev?*%
%TF.SameCoordinates,Original*%
%TF.FileFunction,Copper,L2,Bot*%
%TF.FilePolarity,Positive*%
%FSLAX46Y46*%
G04 Gerber Fmt 4.6, Leading zero omitted, Abs format (unit mm)*
G04 Created by KiCad (PCBNEW 7.0.2) date 2023-05-11 17:40:05*
%MOMM*%
%LPD*%
G01*
G04 APERTURE LIST*
%TA.AperFunction,ComponentPad*%
%ADD10R,1.700000X1.700000*%
%TD*%
%TA.AperFunction,ComponentPad*%
%ADD11O,1.700000X1.700000*%
%TD*%
%TA.AperFunction,ViaPad*%
%ADD12C,0.800000*%
%TD*%
%TA.AperFunction,Conductor*%
%ADD13C,0.250000*%
%TD*%
G04 APERTURE END LIST*
D10*
%TO.P,JP_ith2,1,A*%
%TO.N,Net-(JP_ith2-A)*%
X88900000Y-86360000D03*
D11*
%TO.P,JP_ith2,2,B*%
%TO.N,/ith*%
X88900000Y-83820000D03*
%TD*%
D10*
%TO.P,TPgate1,1,1*%
%TO.N,/gate*%
X116840000Y-78740000D03*
%TD*%
%TO.P,GND1,1,1*%
%TO.N,GND*%
X143510000Y-90170000D03*
%TD*%
%TO.P,GND4,1,1*%
%TO.N,GND*%
X123190000Y-83820000D03*
%TD*%
%TO.P,TPith1,1,1*%
%TO.N,/ith*%
X83820000Y-80010000D03*
%TD*%
%TO.P,IN1,1,Pin_1*%
%TO.N,VCC*%
X78740000Y-66850000D03*
D11*
%TO.P,IN1,2,Pin_2*%
%TO.N,GND*%
X78740000Y-69390000D03*
%TD*%
D10*
%TO.P,TPfb1,1,1*%
%TO.N,Net-(JP_Rfb1-A)*%
X107950000Y-87630000D03*
%TD*%
%TO.P,GND2,1,1*%
%TO.N,GND*%
X78740000Y-73660000D03*
%TD*%
%TO.P,TPdrv1,1,1*%
%TO.N,/drv*%
X109220000Y-96520000D03*
%TD*%
%TO.P,GND3,1,1*%
%TO.N,GND*%
X88900000Y-99060000D03*
%TD*%
%TO.P,JP_L1,1,A*%
%TO.N,/sw*%
X128270000Y-71120000D03*
D11*
%TO.P,JP_L1,2,B*%
%TO.N,Net-(JP_L1-B)*%
X130810000Y-71120000D03*
%TD*%
D10*
%TO.P,TPrsen1,1,1*%
%TO.N,/sen*%
X109220000Y-78740000D03*
%TD*%
%TO.P,TPout1,1,1*%
%TO.N,/out*%
X144780000Y-69850000D03*
%TD*%
%TO.P,JP_Rfb1,1,A*%
%TO.N,Net-(JP_Rfb1-A)*%
X105410000Y-80010000D03*
D11*
%TO.P,JP_Rfb1,2,B*%
%TO.N,Net-(JP_Rfb1-B)*%
X105410000Y-77470000D03*
%TD*%
D10*
%TO.P,TPin1,1,1*%
%TO.N,VCC*%
X85090000Y-64770000D03*
%TD*%
%TO.P,TPsw1,1,1*%
%TO.N,/sw*%
X93980000Y-99060000D03*
%TD*%
%TO.P,TPL1,1,1*%
%TO.N,Net-(JP_L1-B)*%
X121920000Y-66040000D03*
%TD*%
%TO.P,OUT1,1,Pin_1*%
%TO.N,/out*%
X143510000Y-80010000D03*
D11*
%TO.P,OUT1,2,Pin_2*%
%TO.N,GND*%
X143510000Y-82550000D03*
%TD*%
D10*
%TO.P,JP_ith3,1,A*%
%TO.N,Net-(JP_ith3-A)*%
X93980000Y-86360000D03*
D11*
%TO.P,JP_ith3,2,B*%
%TO.N,/ith*%
X93980000Y-83820000D03*
%TD*%
D10*
%TO.P,JP_ith1,1,A*%
%TO.N,Net-(JP_ith1-A)*%
X83820000Y-86360000D03*
D11*
%TO.P,JP_ith1,2,B*%
%TO.N,/ith*%
X83820000Y-83820000D03*
%TD*%
D12*
%TO.N,/sw*%
X97790000Y-95250000D03*
X115570000Y-87630000D03*
%TO.N,VCC*%
X107950000Y-91440000D03*
X96520000Y-76200000D03*
%TO.N,/out*%
X113030000Y-86360000D03*
X118110000Y-86360000D03*
%TO.N,/sen*%
X109220000Y-85090000D03*
%TO.N,/ith*%
X102870000Y-86360000D03*
X97790000Y-86360000D03*
%TO.N,/drv*%
X104140000Y-96520000D03*
X101600000Y-96520000D03*
%TD*%
D13*
%TO.N,VCC*%
X104140000Y-87630000D02*
X104140000Y-81280000D01*
X107950000Y-91440000D02*
X104140000Y-87630000D01*
%TO.N,/sw*%
X97790000Y-95250000D02*
X107950000Y-95250000D01*
X107950000Y-95250000D02*
X115570000Y-87630000D01*
%TO.N,VCC*%
X101600000Y-81280000D02*
X104140000Y-81280000D01*
X96520000Y-76200000D02*
X101600000Y-81280000D01*
%TO.N,/out*%
X118110000Y-86360000D02*
X113030000Y-86360000D01*
%TO.N,/sen*%
X109220000Y-85090000D02*
X109220000Y-78740000D01*
%TO.N,/ith*%
X97790000Y-86360000D02*
X102870000Y-86360000D01*
%TO.N,/drv*%
X101600000Y-96520000D02*
X104140000Y-96520000D01*
%TD*%
%TA.AperFunction,Conductor*%
%TO.N,GND*%
G36*
X145993039Y-60979685D02*
G01*
X146038794Y-61032489D01*
X146050000Y-61084000D01*
X146050000Y-68443877D01*
X146030315Y-68510916D01*
X145977511Y-68556671D01*
X145908353Y-68566615D01*
X145882667Y-68560059D01*
X145737485Y-68505909D01*
X145681166Y-68499854D01*
X145681165Y-68499853D01*
X145677873Y-68499500D01*
X145674550Y-68499500D01*
X143885439Y-68499500D01*
X143885420Y-68499500D01*
X143882128Y-68499501D01*
X143878848Y-68499853D01*
X143878840Y-68499854D01*
X143822515Y-68505909D01*
X143687669Y-68556204D01*
X143572454Y-68642454D01*
X143486204Y-68757668D01*
X143435909Y-68892516D01*
X143432255Y-68926507D01*
X143429500Y-68952127D01*
X143429500Y-68955448D01*
X143429500Y-68955449D01*
X143429500Y-70744560D01*
X143429500Y-70744578D01*
X143429501Y-70747872D01*
X143435909Y-70807483D01*
X143486204Y-70942331D01*
X143572454Y-71057546D01*
X143687669Y-71143796D01*
X143822517Y-71194091D01*
X143882127Y-71200500D01*
X145677872Y-71200499D01*
X145737483Y-71194091D01*
X145872331Y-71143796D01*
X145872334Y-71143793D01*
X145882666Y-71139940D01*
X145952358Y-71134956D01*
X146013681Y-71168441D01*
X146047166Y-71229764D01*
X146050000Y-71256122D01*
X146050000Y-101476000D01*
X146030315Y-101543039D01*
X145977511Y-101588794D01*
X145926000Y-101600000D01*
X119504000Y-101600000D01*
X119436961Y-101580315D01*
X119391206Y-101527511D01*
X119380000Y-101476000D01*
X119380000Y-96651182D01*
X141759500Y-96651182D01*
X141798604Y-96910615D01*
X141875937Y-97161323D01*
X141989772Y-97397704D01*
X142044165Y-97477483D01*
X142137571Y-97614485D01*
X142316015Y-97806801D01*
X142316019Y-97806805D01*
X142521143Y-97970386D01*
X142748357Y-98101568D01*
X142992584Y-98197420D01*
X143248370Y-98255802D01*
X143444506Y-98270500D01*
X143446823Y-98270500D01*
X143573177Y-98270500D01*
X143575494Y-98270500D01*
X143771630Y-98255802D01*
X144027416Y-98197420D01*
X144271643Y-98101568D01*
X144498857Y-97970386D01*
X144703981Y-97806805D01*
X144803273Y-97699792D01*
X144882428Y-97614485D01*
X144882429Y-97614482D01*
X144882433Y-97614479D01*
X145030228Y-97397704D01*
X145144063Y-97161323D01*
X145221396Y-96910615D01*
X145260500Y-96651182D01*
X145260500Y-96388818D01*
X145221396Y-96129385D01*
X145144063Y-95878677D01*
X145030228Y-95642296D01*
X144882433Y-95425521D01*
X144882432Y-95425520D01*
X144882428Y-95425514D01*
X144703984Y-95233198D01*
X144703983Y-95233197D01*
X144703981Y-95233195D01*
X144498857Y-95069614D01*
X144498856Y-95069613D01*
X144271641Y-94938431D01*
X144027418Y-94842580D01*
X143771627Y-94784197D01*
X143577808Y-94769673D01*
X143577797Y-94769672D01*
X143575494Y-94769500D01*
X143444506Y-94769500D01*
X143442203Y-94769672D01*
X143442191Y-94769673D01*
X143248372Y-94784197D01*
X142992581Y-94842580D01*
X142748358Y-94938431D01*
X142521143Y-95069613D01*
X142316015Y-95233198D01*
X142137571Y-95425514D01*
X142037070Y-95572922D01*
X141989772Y-95642296D01*
X141875937Y-95878677D01*
X141798604Y-96129385D01*
X141759500Y-96388818D01*
X141759500Y-96651182D01*
X119380000Y-96651182D01*
X119380000Y-91064518D01*
X142160000Y-91064518D01*
X142160354Y-91071132D01*
X142166400Y-91127371D01*
X142216647Y-91262089D01*
X142302811Y-91377188D01*
X142417910Y-91463352D01*
X142552628Y-91513599D01*
X142608867Y-91519645D01*
X142615482Y-91520000D01*
X143260000Y-91520000D01*
X143260000Y-90605501D01*
X143367685Y-90654680D01*
X143474237Y-90670000D01*
X143545763Y-90670000D01*
X143652315Y-90654680D01*
X143760000Y-90605501D01*
X143760000Y-91520000D01*
X144404518Y-91520000D01*
X144411132Y-91519645D01*
X144467371Y-91513599D01*
X144602089Y-91463352D01*
X144717188Y-91377188D01*
X144803352Y-91262089D01*
X144853599Y-91127371D01*
X144859645Y-91071132D01*
X144860000Y-91064518D01*
X144860000Y-90420000D01*
X143943686Y-90420000D01*
X143969493Y-90379844D01*
X144010000Y-90241889D01*
X144010000Y-90098111D01*
X143969493Y-89960156D01*
X143943686Y-89920000D01*
X144860000Y-89920000D01*
X144860000Y-89275481D01*
X144859645Y-89268867D01*
X144853599Y-89212628D01*
X144803352Y-89077910D01*
X144717188Y-88962811D01*
X144602089Y-88876647D01*
X144467371Y-88826400D01*
X144411132Y-88820354D01*
X144404518Y-88820000D01*
X143760000Y-88820000D01*
X143760000Y-89734498D01*
X143652315Y-89685320D01*
X143545763Y-89670000D01*
X143474237Y-89670000D01*
X143367685Y-89685320D01*
X143260000Y-89734498D01*
X143260000Y-88820000D01*
X142615482Y-88820000D01*
X142608867Y-88820354D01*
X142552628Y-88826400D01*
X142417910Y-88876647D01*
X142302811Y-88962811D01*
X142216647Y-89077910D01*
X142166400Y-89212628D01*
X142160354Y-89268867D01*
X142160000Y-89275481D01*
X142160000Y-89920000D01*
X143076314Y-89920000D01*
X143050507Y-89960156D01*
X143010000Y-90098111D01*
X143010000Y-90241889D01*
X143050507Y-90379844D01*
X143076314Y-90420000D01*
X142160000Y-90420000D01*
X142160000Y-91064518D01*
X119380000Y-91064518D01*
X119380000Y-84714518D01*
X121840000Y-84714518D01*
X121840354Y-84721132D01*
X121846400Y-84777371D01*
X121896647Y-84912089D01*
X121982811Y-85027188D01*
X122097910Y-85113352D01*
X122232628Y-85163599D01*
X122288867Y-85169645D01*
X122295482Y-85170000D01*
X122940000Y-85170000D01*
X122940000Y-84255501D01*
X123047685Y-84304680D01*
X123154237Y-84320000D01*
X123225763Y-84320000D01*
X123332315Y-84304680D01*
X123439999Y-84255501D01*
X123439999Y-85170000D01*
X124084518Y-85170000D01*
X124091132Y-85169645D01*
X124147371Y-85163599D01*
X124282089Y-85113352D01*
X124397188Y-85027188D01*
X124483352Y-84912089D01*
X124533599Y-84777371D01*
X124539645Y-84721132D01*
X124540000Y-84714518D01*
X124540000Y-84070000D01*
X123623686Y-84070000D01*
X123649493Y-84029844D01*
X123690000Y-83891889D01*
X123690000Y-83748111D01*
X123649493Y-83610156D01*
X123623686Y-83570000D01*
X124540000Y-83570000D01*
X124540000Y-82925481D01*
X124539645Y-82918867D01*
X124533599Y-82862628D01*
X124483352Y-82727910D01*
X124397188Y-82612811D01*
X124282089Y-82526647D01*
X124147371Y-82476400D01*
X124091132Y-82470354D01*
X124084518Y-82470000D01*
X123440000Y-82470000D01*
X123439999Y-83384498D01*
X123332315Y-83335320D01*
X123225763Y-83320000D01*
X123154237Y-83320000D01*
X123047685Y-83335320D01*
X122940000Y-83384498D01*
X122940000Y-82470000D01*
X122295482Y-82470000D01*
X122288867Y-82470354D01*
X122232628Y-82476400D01*
X122097910Y-82526647D01*
X121982811Y-82612811D01*
X121896647Y-82727910D01*
X121846400Y-82862628D01*
X121840354Y-82918867D01*
X121840000Y-82925481D01*
X121840000Y-83570000D01*
X122756314Y-83570000D01*
X122730507Y-83610156D01*
X122690000Y-83748111D01*
X122690000Y-83891889D01*
X122730507Y-84029844D01*
X122756314Y-84070000D01*
X121840000Y-84070000D01*
X121840000Y-84714518D01*
X119380000Y-84714518D01*
X119380000Y-80904578D01*
X142159500Y-80904578D01*
X142159501Y-80907872D01*
X142165909Y-80967483D01*
X142216204Y-81102331D01*
X142302454Y-81217546D01*
X142417669Y-81303796D01*
X142549598Y-81353002D01*
X142605532Y-81394873D01*
X142629949Y-81460337D01*
X142615097Y-81528610D01*
X142593947Y-81556865D01*
X142471888Y-81678924D01*
X142336400Y-81872421D01*
X142236569Y-82086507D01*
X142179364Y-82299999D01*
X142179364Y-82300000D01*
X143076314Y-82300000D01*
X143050507Y-82340156D01*
X143010000Y-82478111D01*
X143010000Y-82621889D01*
X143050507Y-82759844D01*
X143076314Y-82800000D01*
X142179364Y-82800000D01*
X142236569Y-83013492D01*
X142336399Y-83227576D01*
X142471893Y-83421081D01*
X142638918Y-83588106D01*
X142832423Y-83723600D01*
X143046509Y-83823430D01*
X143260000Y-83880634D01*
X143260000Y-82985501D01*
X143367685Y-83034680D01*
X143474237Y-83050000D01*
X143545763Y-83050000D01*
X143652315Y-83034680D01*
X143760000Y-82985501D01*
X143760000Y-83880633D01*
X143973490Y-83823430D01*
X144187576Y-83723600D01*
X144381081Y-83588106D01*
X144548106Y-83421081D01*
X144683600Y-83227576D01*
X144783430Y-83013492D01*
X144840636Y-82800000D01*
X143943686Y-82800000D01*
X143969493Y-82759844D01*
X144010000Y-82621889D01*
X144010000Y-82478111D01*
X143969493Y-82340156D01*
X143943686Y-82300000D01*
X144840636Y-82300000D01*
X144840635Y-82299999D01*
X144783430Y-82086507D01*
X144683599Y-81872421D01*
X144548109Y-81678921D01*
X144426053Y-81556865D01*
X144392568Y-81495542D01*
X144397552Y-81425850D01*
X144439424Y-81369917D01*
X144470397Y-81353004D01*
X144602331Y-81303796D01*
X144717546Y-81217546D01*
X144803796Y-81102331D01*
X144854091Y-80967483D01*
X144860500Y-80907873D01*
X144860499Y-79112128D01*
X144854091Y-79052517D01*
X144803796Y-78917669D01*
X144717546Y-78802454D01*
X144602331Y-78716204D01*
X144467483Y-78665909D01*
X144407873Y-78659500D01*
X144404550Y-78659500D01*
X142615439Y-78659500D01*
X142615420Y-78659500D01*
X142612128Y-78659501D01*
X142608848Y-78659853D01*
X142608840Y-78659854D01*
X142552515Y-78665909D01*
X142417669Y-78716204D01*
X142302454Y-78802454D01*
X142216204Y-78917668D01*
X142165910Y-79052515D01*
X142165909Y-79052517D01*
X142159500Y-79112127D01*
X142159500Y-79115448D01*
X142159500Y-79115449D01*
X142159500Y-80904560D01*
X142159500Y-80904578D01*
X119380000Y-80904578D01*
X119380000Y-74930000D01*
X80145589Y-74930000D01*
X80078550Y-74910315D01*
X80032795Y-74857511D01*
X80022851Y-74788353D01*
X80029407Y-74762666D01*
X80083599Y-74617371D01*
X80089645Y-74561132D01*
X80090000Y-74554518D01*
X80090000Y-73910000D01*
X79173686Y-73910000D01*
X79199493Y-73869844D01*
X79240000Y-73731889D01*
X79240000Y-73588111D01*
X79199493Y-73450156D01*
X79173686Y-73410000D01*
X80090000Y-73410000D01*
X80090000Y-72765481D01*
X80089645Y-72758867D01*
X80083599Y-72702628D01*
X80033352Y-72567910D01*
X79947188Y-72452811D01*
X79832089Y-72366647D01*
X79697371Y-72316400D01*
X79641132Y-72310354D01*
X79634518Y-72310000D01*
X78990000Y-72310000D01*
X78990000Y-73224498D01*
X78882315Y-73175320D01*
X78775763Y-73160000D01*
X78704237Y-73160000D01*
X78597685Y-73175320D01*
X78490000Y-73224498D01*
X78490000Y-72310000D01*
X77845482Y-72310000D01*
X77838867Y-72310354D01*
X77782628Y-72316400D01*
X77647910Y-72366647D01*
X77532811Y-72452811D01*
X77446647Y-72567910D01*
X77396400Y-72702628D01*
X77390354Y-72758867D01*
X77390000Y-72765481D01*
X77390000Y-73410000D01*
X78306314Y-73410000D01*
X78280507Y-73450156D01*
X78240000Y-73588111D01*
X78240000Y-73731889D01*
X78280507Y-73869844D01*
X78306314Y-73910000D01*
X77390000Y-73910000D01*
X77390000Y-74554518D01*
X77390354Y-74561132D01*
X77396400Y-74617371D01*
X77450593Y-74762666D01*
X77455577Y-74832358D01*
X77422092Y-74893681D01*
X77360769Y-74927166D01*
X77334411Y-74930000D01*
X76324000Y-74930000D01*
X76256961Y-74910315D01*
X76211206Y-74857511D01*
X76200000Y-74806000D01*
X76200000Y-72014578D01*
X126919500Y-72014578D01*
X126919501Y-72017872D01*
X126919853Y-72021152D01*
X126919854Y-72021159D01*
X126925909Y-72077484D01*
X126951056Y-72144906D01*
X126976204Y-72212331D01*
X127062454Y-72327546D01*
X127177669Y-72413796D01*
X127312517Y-72464091D01*
X127372127Y-72470500D01*
X129167872Y-72470499D01*
X129227483Y-72464091D01*
X129362331Y-72413796D01*
X129477546Y-72327546D01*
X129563796Y-72212331D01*
X129612810Y-72080916D01*
X129654681Y-72024983D01*
X129720146Y-72000566D01*
X129788419Y-72015418D01*
X129816672Y-72036568D01*
X129938599Y-72158495D01*
X130132170Y-72294035D01*
X130346337Y-72393903D01*
X130574592Y-72455063D01*
X130810000Y-72475659D01*
X131045408Y-72455063D01*
X131273663Y-72393903D01*
X131487830Y-72294035D01*
X131681401Y-72158495D01*
X131848495Y-71991401D01*
X131984035Y-71797830D01*
X132083903Y-71583663D01*
X132145063Y-71355408D01*
X132165659Y-71120000D01*
X132145063Y-70884592D01*
X132083903Y-70656337D01*
X131984035Y-70442171D01*
X131848495Y-70248599D01*
X131681401Y-70081505D01*
X131487830Y-69945965D01*
X131273663Y-69846097D01*
X131212502Y-69829709D01*
X131045407Y-69784936D01*
X130810000Y-69764340D01*
X130574592Y-69784936D01*
X130346336Y-69846097D01*
X130132170Y-69945965D01*
X129938601Y-70081503D01*
X129816673Y-70203431D01*
X129755350Y-70236915D01*
X129685658Y-70231931D01*
X129629725Y-70190059D01*
X129612810Y-70159082D01*
X129605658Y-70139907D01*
X129563796Y-70027669D01*
X129477546Y-69912454D01*
X129362331Y-69826204D01*
X129227483Y-69775909D01*
X129167873Y-69769500D01*
X129164550Y-69769500D01*
X127375439Y-69769500D01*
X127375420Y-69769500D01*
X127372128Y-69769501D01*
X127368848Y-69769853D01*
X127368840Y-69769854D01*
X127312515Y-69775909D01*
X127177669Y-69826204D01*
X127062454Y-69912454D01*
X126976204Y-70027668D01*
X126961320Y-70067576D01*
X126925909Y-70162517D01*
X126919500Y-70222127D01*
X126919500Y-70225448D01*
X126919500Y-70225449D01*
X126919500Y-72014560D01*
X126919500Y-72014578D01*
X76200000Y-72014578D01*
X76200000Y-67744578D01*
X77389500Y-67744578D01*
X77389501Y-67747872D01*
X77395909Y-67807483D01*
X77446204Y-67942331D01*
X77532454Y-68057546D01*
X77647669Y-68143796D01*
X77779598Y-68193002D01*
X77835532Y-68234873D01*
X77859949Y-68300337D01*
X77845097Y-68368610D01*
X77823947Y-68396865D01*
X77701888Y-68518924D01*
X77566400Y-68712421D01*
X77466569Y-68926507D01*
X77409364Y-69139999D01*
X77409364Y-69140000D01*
X78306314Y-69140000D01*
X78280507Y-69180156D01*
X78240000Y-69318111D01*
X78240000Y-69461889D01*
X78280507Y-69599844D01*
X78306314Y-69640000D01*
X77409364Y-69640000D01*
X77466569Y-69853492D01*
X77566399Y-70067576D01*
X77701893Y-70261081D01*
X77868918Y-70428106D01*
X78062423Y-70563600D01*
X78276509Y-70663430D01*
X78490000Y-70720634D01*
X78490000Y-69825501D01*
X78597685Y-69874680D01*
X78704237Y-69890000D01*
X78775763Y-69890000D01*
X78882315Y-69874680D01*
X78990000Y-69825501D01*
X78990000Y-70720633D01*
X79203490Y-70663430D01*
X79417576Y-70563600D01*
X79611081Y-70428106D01*
X79778106Y-70261081D01*
X79913600Y-70067576D01*
X80013430Y-69853492D01*
X80070636Y-69640000D01*
X79173686Y-69640000D01*
X79199493Y-69599844D01*
X79240000Y-69461889D01*
X79240000Y-69318111D01*
X79199493Y-69180156D01*
X79173686Y-69140000D01*
X80070636Y-69140000D01*
X80070635Y-69139999D01*
X80013430Y-68926507D01*
X79913599Y-68712421D01*
X79778109Y-68518921D01*
X79656053Y-68396865D01*
X79622568Y-68335542D01*
X79627552Y-68265850D01*
X79669424Y-68209917D01*
X79700397Y-68193004D01*
X79832331Y-68143796D01*
X79947546Y-68057546D01*
X80033796Y-67942331D01*
X80084091Y-67807483D01*
X80090500Y-67747873D01*
X80090500Y-66934578D01*
X120569500Y-66934578D01*
X120569501Y-66937872D01*
X120575909Y-66997483D01*
X120626204Y-67132331D01*
X120712454Y-67247546D01*
X120827669Y-67333796D01*
X120962517Y-67384091D01*
X121022127Y-67390500D01*
X122817872Y-67390499D01*
X122877483Y-67384091D01*
X123012331Y-67333796D01*
X123127546Y-67247546D01*
X123213796Y-67132331D01*
X123264091Y-66997483D01*
X123270500Y-66937873D01*
X123270499Y-65142128D01*
X123264091Y-65082517D01*
X123213796Y-64947669D01*
X123127546Y-64832454D01*
X123012331Y-64746204D01*
X122877483Y-64695909D01*
X122817873Y-64689500D01*
X122814550Y-64689500D01*
X121025439Y-64689500D01*
X121025420Y-64689500D01*
X121022128Y-64689501D01*
X121018848Y-64689853D01*
X121018840Y-64689854D01*
X120962515Y-64695909D01*
X120827669Y-64746204D01*
X120712454Y-64832454D01*
X120626204Y-64947668D01*
X120575910Y-65082515D01*
X120575909Y-65082517D01*
X120569500Y-65142127D01*
X120569500Y-65145448D01*
X120569500Y-65145449D01*
X120569500Y-66934560D01*
X120569500Y-66934578D01*
X80090500Y-66934578D01*
X80090499Y-65952128D01*
X80084091Y-65892517D01*
X80033796Y-65757669D01*
X79964108Y-65664578D01*
X83739500Y-65664578D01*
X83739501Y-65667872D01*
X83739853Y-65671152D01*
X83739854Y-65671159D01*
X83745909Y-65727484D01*
X83771056Y-65794906D01*
X83796204Y-65862331D01*
X83882454Y-65977546D01*
X83997669Y-66063796D01*
X84132517Y-66114091D01*
X84192127Y-66120500D01*
X85987872Y-66120499D01*
X86047483Y-66114091D01*
X86182331Y-66063796D01*
X86297546Y-65977546D01*
X86383796Y-65862331D01*
X86434091Y-65727483D01*
X86440500Y-65667873D01*
X86440499Y-63872128D01*
X86434091Y-63812517D01*
X86383796Y-63677669D01*
X86348996Y-63631182D01*
X90959500Y-63631182D01*
X90998604Y-63890615D01*
X91075937Y-64141323D01*
X91189772Y-64377704D01*
X91325766Y-64577170D01*
X91337571Y-64594485D01*
X91516015Y-64786801D01*
X91516019Y-64786805D01*
X91721143Y-64950386D01*
X91948357Y-65081568D01*
X92192584Y-65177420D01*
X92448370Y-65235802D01*
X92644506Y-65250500D01*
X92646823Y-65250500D01*
X92773177Y-65250500D01*
X92775494Y-65250500D01*
X92971630Y-65235802D01*
X93227416Y-65177420D01*
X93471643Y-65081568D01*
X93698857Y-64950386D01*
X93903981Y-64786805D01*
X94003273Y-64679792D01*
X94082428Y-64594485D01*
X94082429Y-64594482D01*
X94082433Y-64594479D01*
X94230228Y-64377704D01*
X94344063Y-64141323D01*
X94421396Y-63890615D01*
X94460500Y-63631182D01*
X141759500Y-63631182D01*
X141798604Y-63890615D01*
X141875937Y-64141323D01*
X141989772Y-64377704D01*
X142125766Y-64577170D01*
X142137571Y-64594485D01*
X142316015Y-64786801D01*
X142316019Y-64786805D01*
X142521143Y-64950386D01*
X142748357Y-65081568D01*
X142992584Y-65177420D01*
X143248370Y-65235802D01*
X143444506Y-65250500D01*
X143446823Y-65250500D01*
X143573177Y-65250500D01*
X143575494Y-65250500D01*
X143771630Y-65235802D01*
X144027416Y-65177420D01*
X144271643Y-65081568D01*
X144498857Y-64950386D01*
X144703981Y-64786805D01*
X144803273Y-64679792D01*
X144882428Y-64594485D01*
X144882429Y-64594482D01*
X144882433Y-64594479D01*
X145030228Y-64377704D01*
X145144063Y-64141323D01*
X145221396Y-63890615D01*
X145260500Y-63631182D01*
X145260500Y-63368818D01*
X145221396Y-63109385D01*
X145144063Y-62858677D01*
X145030228Y-62622296D01*
X144882433Y-62405521D01*
X144882432Y-62405520D01*
X144882428Y-62405514D01*
X144703984Y-62213198D01*
X144703983Y-62213197D01*
X144703981Y-62213195D01*
X144498857Y-62049614D01*
X144498856Y-62049613D01*
X144271641Y-61918431D01*
X144027418Y-61822580D01*
X143771627Y-61764197D01*
X143577808Y-61749673D01*
X143577797Y-61749672D01*
X143575494Y-61749500D01*
X143444506Y-61749500D01*
X143442203Y-61749672D01*
X143442191Y-61749673D01*
X143248372Y-61764197D01*
X142992581Y-61822580D01*
X142748358Y-61918431D01*
X142521143Y-62049613D01*
X142316015Y-62213198D01*
X142137571Y-62405514D01*
X142037070Y-62552922D01*
X141989772Y-62622296D01*
X141875937Y-62858677D01*
X141798604Y-63109385D01*
X141759500Y-63368818D01*
X141759500Y-63631182D01*
X94460500Y-63631182D01*
X94460500Y-63368818D01*
X94421396Y-63109385D01*
X94344063Y-62858677D01*
X94230228Y-62622296D01*
X94082433Y-62405521D01*
X94082432Y-62405520D01*
X94082428Y-62405514D01*
X93903984Y-62213198D01*
X93903983Y-62213197D01*
X93903981Y-62213195D01*
X93698857Y-62049614D01*
X93698856Y-62049613D01*
X93471641Y-61918431D01*
X93227418Y-61822580D01*
X92971627Y-61764197D01*
X92777808Y-61749673D01*
X92777797Y-61749672D01*
X92775494Y-61749500D01*
X92644506Y-61749500D01*
X92642203Y-61749672D01*
X92642191Y-61749673D01*
X92448372Y-61764197D01*
X92192581Y-61822580D01*
X91948358Y-61918431D01*
X91721143Y-62049613D01*
X91516015Y-62213198D01*
X91337571Y-62405514D01*
X91237070Y-62552922D01*
X91189772Y-62622296D01*
X91075937Y-62858677D01*
X90998604Y-63109385D01*
X90959500Y-63368818D01*
X90959500Y-63631182D01*
X86348996Y-63631182D01*
X86297546Y-63562454D01*
X86182331Y-63476204D01*
X86047483Y-63425909D01*
X85987873Y-63419500D01*
X85984550Y-63419500D01*
X84195439Y-63419500D01*
X84195420Y-63419500D01*
X84192128Y-63419501D01*
X84188848Y-63419853D01*
X84188840Y-63419854D01*
X84132515Y-63425909D01*
X83997669Y-63476204D01*
X83882454Y-63562454D01*
X83796204Y-63677668D01*
X83745910Y-63812515D01*
X83745909Y-63812517D01*
X83739500Y-63872127D01*
X83739500Y-63875448D01*
X83739500Y-63875449D01*
X83739500Y-65664560D01*
X83739500Y-65664578D01*
X79964108Y-65664578D01*
X79947546Y-65642454D01*
X79832331Y-65556204D01*
X79697483Y-65505909D01*
X79637873Y-65499500D01*
X79634550Y-65499500D01*
X77845439Y-65499500D01*
X77845420Y-65499500D01*
X77842128Y-65499501D01*
X77838848Y-65499853D01*
X77838840Y-65499854D01*
X77782515Y-65505909D01*
X77647669Y-65556204D01*
X77532454Y-65642454D01*
X77446204Y-65757668D01*
X77395910Y-65892515D01*
X77395909Y-65892517D01*
X77389500Y-65952127D01*
X77389500Y-65955448D01*
X77389500Y-65955449D01*
X77389500Y-67744560D01*
X77389500Y-67744578D01*
X76200000Y-67744578D01*
X76200000Y-61084000D01*
X76219685Y-61016961D01*
X76272489Y-60971206D01*
X76324000Y-60960000D01*
X145926000Y-60960000D01*
X145993039Y-60979685D01*
G37*
%TD.AperFunction*%
%TD*%
M02*
