%TF.GenerationSoftware,KiCad,Pcbnew,7.0.2*%
%TF.CreationDate,2023-05-11T17:40:05+02:00*%
%TF.ProjectId,buckConverterPrj,6275636b-436f-46e7-9665-727465725072,rev?*%
%TF.SameCoordinates,Original*%
%TF.FileFunction,Copper,L1,Top*%
%TF.FilePolarity,Positive*%
%FSLAX46Y46*%
G04 Gerber Fmt 4.6, Leading zero omitted, Abs format (unit mm)*
G04 Created by KiCad (PCBNEW 7.0.2) date 2023-05-11 17:40:05*
%MOMM*%
%LPD*%
G01*
G04 APERTURE LIST*
G04 Aperture macros list*
%AMRoundRect*
0 Rectangle with rounded corners*
0 $1 Rounding radius*
0 $2 $3 $4 $5 $6 $7 $8 $9 X,Y pos of 4 corners*
0 Add a 4 corners polygon primitive as box body*
4,1,4,$2,$3,$4,$5,$6,$7,$8,$9,$2,$3,0*
0 Add four circle primitives for the rounded corners*
1,1,$1+$1,$2,$3*
1,1,$1+$1,$4,$5*
1,1,$1+$1,$6,$7*
1,1,$1+$1,$8,$9*
0 Add four rect primitives between the rounded corners*
20,1,$1+$1,$2,$3,$4,$5,0*
20,1,$1+$1,$4,$5,$6,$7,0*
20,1,$1+$1,$6,$7,$8,$9,0*
20,1,$1+$1,$8,$9,$2,$3,0*%
G04 Aperture macros list end*
%TA.AperFunction,ComponentPad*%
%ADD10R,1.700000X1.700000*%
%TD*%
%TA.AperFunction,ComponentPad*%
%ADD11O,1.700000X1.700000*%
%TD*%
%TA.AperFunction,SMDPad,CuDef*%
%ADD12RoundRect,0.237500X0.300000X0.237500X-0.300000X0.237500X-0.300000X-0.237500X0.300000X-0.237500X0*%
%TD*%
%TA.AperFunction,SMDPad,CuDef*%
%ADD13RoundRect,0.237500X0.237500X-0.300000X0.237500X0.300000X-0.237500X0.300000X-0.237500X-0.300000X0*%
%TD*%
%TA.AperFunction,SMDPad,CuDef*%
%ADD14RoundRect,0.240000X-1.760000X-2.760000X1.760000X-2.760000X1.760000X2.760000X-1.760000X2.760000X0*%
%TD*%
%TA.AperFunction,SMDPad,CuDef*%
%ADD15R,2.500000X3.250000*%
%TD*%
%TA.AperFunction,SMDPad,CuDef*%
%ADD16RoundRect,0.237500X0.250000X0.237500X-0.250000X0.237500X-0.250000X-0.237500X0.250000X-0.237500X0*%
%TD*%
%TA.AperFunction,SMDPad,CuDef*%
%ADD17RoundRect,0.225000X-0.375000X0.225000X-0.375000X-0.225000X0.375000X-0.225000X0.375000X0.225000X0*%
%TD*%
%TA.AperFunction,SMDPad,CuDef*%
%ADD18RoundRect,0.237500X-0.250000X-0.237500X0.250000X-0.237500X0.250000X0.237500X-0.250000X0.237500X0*%
%TD*%
%TA.AperFunction,SMDPad,CuDef*%
%ADD19RoundRect,0.150000X-0.150000X0.825000X-0.150000X-0.825000X0.150000X-0.825000X0.150000X0.825000X0*%
%TD*%
%TA.AperFunction,SMDPad,CuDef*%
%ADD20RoundRect,0.237500X-0.237500X0.250000X-0.237500X-0.250000X0.237500X-0.250000X0.237500X0.250000X0*%
%TD*%
%TA.AperFunction,SMDPad,CuDef*%
%ADD21RoundRect,0.150000X0.587500X0.150000X-0.587500X0.150000X-0.587500X-0.150000X0.587500X-0.150000X0*%
%TD*%
%TA.AperFunction,SMDPad,CuDef*%
%ADD22RoundRect,0.237500X-0.237500X0.300000X-0.237500X-0.300000X0.237500X-0.300000X0.237500X0.300000X0*%
%TD*%
%TA.AperFunction,SMDPad,CuDef*%
%ADD23RoundRect,0.250000X1.500000X0.550000X-1.500000X0.550000X-1.500000X-0.550000X1.500000X-0.550000X0*%
%TD*%
%TA.AperFunction,SMDPad,CuDef*%
%ADD24RoundRect,0.250000X-0.550000X1.500000X-0.550000X-1.500000X0.550000X-1.500000X0.550000X1.500000X0*%
%TD*%
%TA.AperFunction,SMDPad,CuDef*%
%ADD25RoundRect,0.250000X0.412500X0.650000X-0.412500X0.650000X-0.412500X-0.650000X0.412500X-0.650000X0*%
%TD*%
%TA.AperFunction,ViaPad*%
%ADD26C,0.800000*%
%TD*%
%TA.AperFunction,Conductor*%
%ADD27C,0.250000*%
%TD*%
%TA.AperFunction,Conductor*%
%ADD28C,0.500000*%
%TD*%
%TA.AperFunction,Conductor*%
%ADD29C,1.000000*%
%TD*%
G04 APERTURE END LIST*
D10*
%TO.P,JP_ith2,1,A*%
%TO.N,Net-(JP_ith2-A)*%
X88900000Y-86360000D03*
D11*
%TO.P,JP_ith2,2,B*%
%TO.N,/ith*%
X88900000Y-83820000D03*
%TD*%
D10*
%TO.P,TPgate1,1,1*%
%TO.N,/gate*%
X116840000Y-78740000D03*
%TD*%
%TO.P,GND1,1,1*%
%TO.N,GND*%
X143510000Y-90170000D03*
%TD*%
%TO.P,GND4,1,1*%
%TO.N,GND*%
X123190000Y-83820000D03*
%TD*%
%TO.P,TPith1,1,1*%
%TO.N,/ith*%
X83820000Y-80010000D03*
%TD*%
D12*
%TO.P,Cb1,1*%
%TO.N,Net-(U1-BOOST)*%
X101192500Y-99060000D03*
%TO.P,Cb1,2*%
%TO.N,/sw*%
X99467500Y-99060000D03*
%TD*%
D13*
%TO.P,Cc2,1*%
%TO.N,Net-(Cc2-Pad1)*%
X88900000Y-91895000D03*
%TO.P,Cc2,2*%
%TO.N,Net-(JP_ith2-A)*%
X88900000Y-90170000D03*
%TD*%
D14*
%TO.P,Rsen1,1*%
%TO.N,/sen*%
X110800000Y-71120000D03*
%TO.P,Rsen1,2*%
%TO.N,VCC*%
X101600000Y-71120000D03*
%TD*%
D15*
%TO.P,L1,1,1*%
%TO.N,Net-(JP_L1-B)*%
X134620000Y-71120000D03*
%TO.P,L1,2,2*%
%TO.N,/out*%
X140620000Y-71120000D03*
%TD*%
D16*
%TO.P,R1div1,1*%
%TO.N,Net-(JP_Rfb1-A)*%
X101600000Y-81280000D03*
%TO.P,R1div1,2*%
%TO.N,GND*%
X99775000Y-81280000D03*
%TD*%
D17*
%TO.P,D1,1,K*%
%TO.N,/sw*%
X124460000Y-71120000D03*
%TO.P,D1,2,A*%
%TO.N,GND*%
X124460000Y-74420000D03*
%TD*%
D10*
%TO.P,IN1,1,Pin_1*%
%TO.N,VCC*%
X78740000Y-66850000D03*
D11*
%TO.P,IN1,2,Pin_2*%
%TO.N,GND*%
X78740000Y-69390000D03*
%TD*%
D13*
%TO.P,Cc1,1*%
%TO.N,Net-(Cc1-Pad1)*%
X83820000Y-91895000D03*
%TO.P,Cc1,2*%
%TO.N,Net-(JP_ith1-A)*%
X83820000Y-90170000D03*
%TD*%
D18*
%TO.P,Rgate1,1*%
%TO.N,/drv*%
X112475000Y-78740000D03*
%TO.P,Rgate1,2*%
%TO.N,/gate*%
X114300000Y-78740000D03*
%TD*%
D10*
%TO.P,TPfb1,1,1*%
%TO.N,Net-(JP_Rfb1-A)*%
X107950000Y-87630000D03*
%TD*%
%TO.P,GND2,1,1*%
%TO.N,GND*%
X78740000Y-73660000D03*
%TD*%
D19*
%TO.P,U1,1,ISENSE*%
%TO.N,/sen*%
X104140000Y-88900000D03*
%TO.P,U1,2,Ith/RUN*%
%TO.N,/ith*%
X102870000Y-88900000D03*
%TO.P,U1,3,SET*%
%TO.N,Net-(JP_Rfb1-A)*%
X101600000Y-88900000D03*
%TO.P,U1,4,GND*%
%TO.N,GND*%
X100330000Y-88900000D03*
%TO.P,U1,5,SW*%
%TO.N,/sw*%
X100330000Y-93850000D03*
%TO.P,U1,6,TG*%
%TO.N,/drv*%
X101600000Y-93850000D03*
%TO.P,U1,7,BOOST*%
%TO.N,Net-(U1-BOOST)*%
X102870000Y-93850000D03*
%TO.P,U1,8,VIN*%
%TO.N,VCC*%
X104140000Y-93850000D03*
%TD*%
D10*
%TO.P,TPdrv1,1,1*%
%TO.N,/drv*%
X109220000Y-96520000D03*
%TD*%
%TO.P,GND3,1,1*%
%TO.N,GND*%
X88900000Y-99060000D03*
%TD*%
D16*
%TO.P,R2div1,1*%
%TO.N,/out*%
X106680000Y-83820000D03*
%TO.P,R2div1,2*%
%TO.N,Net-(JP_Rfb1-A)*%
X104855000Y-83820000D03*
%TD*%
D20*
%TO.P,Rc2,1*%
%TO.N,Net-(Cc2-Pad1)*%
X88900000Y-94337500D03*
%TO.P,Rc2,2*%
%TO.N,GND*%
X88900000Y-96162500D03*
%TD*%
D10*
%TO.P,JP_L1,1,A*%
%TO.N,/sw*%
X128270000Y-71120000D03*
D11*
%TO.P,JP_L1,2,B*%
%TO.N,Net-(JP_L1-B)*%
X130810000Y-71120000D03*
%TD*%
D21*
%TO.P,Q1,1,G*%
%TO.N,/gate*%
X120317500Y-73672500D03*
%TO.P,Q1,2,S*%
%TO.N,/sw*%
X120317500Y-71772500D03*
%TO.P,Q1,3,D*%
%TO.N,/sen*%
X118442500Y-72722500D03*
%TD*%
D10*
%TO.P,TPrsen1,1,1*%
%TO.N,/sen*%
X109220000Y-78740000D03*
%TD*%
%TO.P,TPout1,1,1*%
%TO.N,/out*%
X144780000Y-69850000D03*
%TD*%
D13*
%TO.P,Csen1,1*%
%TO.N,VCC*%
X111760000Y-90625000D03*
%TO.P,Csen1,2*%
%TO.N,/sen*%
X111760000Y-88900000D03*
%TD*%
D22*
%TO.P,Cin2,1*%
%TO.N,VCC*%
X95250000Y-67717500D03*
%TO.P,Cin2,2*%
%TO.N,GND*%
X95250000Y-69442500D03*
%TD*%
D10*
%TO.P,JP_Rfb1,1,A*%
%TO.N,Net-(JP_Rfb1-A)*%
X105410000Y-80010000D03*
D11*
%TO.P,JP_Rfb1,2,B*%
%TO.N,Net-(JP_Rfb1-B)*%
X105410000Y-77470000D03*
%TD*%
D12*
%TO.P,Cfb1,1*%
%TO.N,Net-(JP_Rfb1-A)*%
X101550000Y-83820000D03*
%TO.P,Cfb1,2*%
%TO.N,GND*%
X99825000Y-83820000D03*
%TD*%
D20*
%TO.P,Rc1,1*%
%TO.N,Net-(Cc1-Pad1)*%
X83820000Y-94337500D03*
%TO.P,Rc1,2*%
%TO.N,GND*%
X83820000Y-96162500D03*
%TD*%
D10*
%TO.P,TPin1,1,1*%
%TO.N,VCC*%
X85090000Y-64770000D03*
%TD*%
%TO.P,TPsw1,1,1*%
%TO.N,/sw*%
X93980000Y-99060000D03*
%TD*%
%TO.P,TPL1,1,1*%
%TO.N,Net-(JP_L1-B)*%
X121920000Y-66040000D03*
%TD*%
%TO.P,OUT1,1,Pin_1*%
%TO.N,/out*%
X143510000Y-80010000D03*
D11*
%TO.P,OUT1,2,Pin_2*%
%TO.N,GND*%
X143510000Y-82550000D03*
%TD*%
D23*
%TO.P,Cout1,1*%
%TO.N,/out*%
X137322500Y-81280000D03*
%TO.P,Cout1,2*%
%TO.N,GND*%
X131922500Y-81280000D03*
%TD*%
D13*
%TO.P,Cc3,1*%
%TO.N,Net-(Cc3-Pad1)*%
X93980000Y-91895000D03*
%TO.P,Cc3,2*%
%TO.N,Net-(JP_ith3-A)*%
X93980000Y-90170000D03*
%TD*%
D20*
%TO.P,Rc3,1*%
%TO.N,Net-(Cc3-Pad1)*%
X93980000Y-94337500D03*
%TO.P,Rc3,2*%
%TO.N,GND*%
X93980000Y-96162500D03*
%TD*%
D24*
%TO.P,Cin1,1*%
%TO.N,VCC*%
X88900000Y-68420000D03*
%TO.P,Cin1,2*%
%TO.N,GND*%
X88900000Y-73820000D03*
%TD*%
D25*
%TO.P,Cout2,1*%
%TO.N,/out*%
X135890000Y-88900000D03*
%TO.P,Cout2,2*%
%TO.N,GND*%
X132765000Y-88900000D03*
%TD*%
D10*
%TO.P,JP_ith3,1,A*%
%TO.N,Net-(JP_ith3-A)*%
X93980000Y-86360000D03*
D11*
%TO.P,JP_ith3,2,B*%
%TO.N,/ith*%
X93980000Y-83820000D03*
%TD*%
D16*
%TO.P,R1div2,1*%
%TO.N,Net-(JP_Rfb1-B)*%
X101600000Y-78740000D03*
%TO.P,R1div2,2*%
%TO.N,GND*%
X99775000Y-78740000D03*
%TD*%
D10*
%TO.P,JP_ith1,1,A*%
%TO.N,Net-(JP_ith1-A)*%
X83820000Y-86360000D03*
D11*
%TO.P,JP_ith1,2,B*%
%TO.N,/ith*%
X83820000Y-83820000D03*
%TD*%
D26*
%TO.N,/sw*%
X97790000Y-95250000D03*
X115570000Y-87630000D03*
%TO.N,VCC*%
X107950000Y-91440000D03*
X96520000Y-76200000D03*
%TO.N,/out*%
X113030000Y-86360000D03*
X118110000Y-86360000D03*
%TO.N,/sen*%
X109220000Y-85090000D03*
%TO.N,/ith*%
X102870000Y-86360000D03*
X97790000Y-86360000D03*
%TO.N,/drv*%
X104140000Y-96520000D03*
X101600000Y-96520000D03*
%TD*%
D27*
%TO.N,/sw*%
X100330000Y-93850000D02*
X100330000Y-95250000D01*
X100330000Y-95250000D02*
X99467500Y-96112500D01*
%TO.N,Net-(U1-BOOST)*%
X101192500Y-99060000D02*
X102870000Y-97382500D01*
X102870000Y-97382500D02*
X102870000Y-93850000D01*
%TO.N,/sw*%
X99467500Y-96112500D02*
X99467500Y-99060000D01*
X93980000Y-99060000D02*
X99467500Y-99060000D01*
%TO.N,Net-(JP_ith3-A)*%
X93980000Y-90170000D02*
X93980000Y-86360000D01*
%TO.N,Net-(JP_ith2-A)*%
X88900000Y-90170000D02*
X88900000Y-86360000D01*
%TO.N,Net-(JP_ith1-A)*%
X83820000Y-90170000D02*
X83820000Y-86360000D01*
%TO.N,/ith*%
X83820000Y-83820000D02*
X83820000Y-80010000D01*
X88900000Y-83820000D02*
X83820000Y-83820000D01*
X93980000Y-83820000D02*
X88900000Y-83820000D01*
X95250000Y-83820000D02*
X93980000Y-83820000D01*
X97790000Y-86360000D02*
X95250000Y-83820000D01*
%TO.N,GND*%
X124460000Y-85090000D02*
X128275000Y-85090000D01*
X128275000Y-85090000D02*
X132085000Y-81280000D01*
X123190000Y-83820000D02*
X124460000Y-85090000D01*
%TO.N,/sen*%
X109220000Y-78740000D02*
X111760000Y-76200000D01*
X111760000Y-76200000D02*
X111760000Y-71120000D01*
%TO.N,Net-(JP_Rfb1-A)*%
X104855000Y-84535000D02*
X104855000Y-83820000D01*
X107950000Y-87630000D02*
X104855000Y-84535000D01*
%TO.N,/sen*%
X110685000Y-89975000D02*
X111760000Y-88900000D01*
X108300761Y-90170000D02*
X108495761Y-89975000D01*
X105410000Y-90170000D02*
X108300761Y-90170000D01*
X108495761Y-89975000D02*
X110685000Y-89975000D01*
X104140000Y-88900000D02*
X105410000Y-90170000D01*
X110490000Y-86360000D02*
X109220000Y-85090000D01*
X110490000Y-87630000D02*
X110490000Y-86360000D01*
X111760000Y-88900000D02*
X110490000Y-87630000D01*
%TO.N,Net-(JP_Rfb1-B)*%
X104140000Y-78740000D02*
X101600000Y-78740000D01*
X105410000Y-77470000D02*
X104140000Y-78740000D01*
%TO.N,Net-(JP_Rfb1-A)*%
X102870000Y-80010000D02*
X105410000Y-80010000D01*
D28*
%TO.N,Net-(JP_L1-B)*%
X130810000Y-69917919D02*
X128202081Y-67310000D01*
X130810000Y-71120000D02*
X130810000Y-69917919D01*
X130810000Y-71120000D02*
X134620000Y-71120000D01*
%TO.N,/sw*%
X124460000Y-71120000D02*
X128270000Y-71120000D01*
%TO.N,VCC*%
X83820000Y-64770000D02*
X85090000Y-64770000D01*
X81280000Y-67310000D02*
X83820000Y-64770000D01*
%TO.N,GND*%
X78740000Y-73660000D02*
X78740000Y-69390000D01*
D27*
%TO.N,/sw*%
X115570000Y-87591852D02*
X115570000Y-87630000D01*
X121920000Y-81280000D02*
X121881852Y-81280000D01*
X121920000Y-81280000D02*
X121920000Y-71772500D01*
X100330000Y-93850000D02*
X99190000Y-93850000D01*
D28*
X121920000Y-71772500D02*
X123807500Y-71772500D01*
D27*
X99190000Y-93850000D02*
X97790000Y-95250000D01*
D28*
X120317500Y-71772500D02*
X121920000Y-71772500D01*
X123807500Y-71772500D02*
X124460000Y-71120000D01*
D27*
X121881852Y-81280000D02*
X115570000Y-87591852D01*
%TO.N,Net-(Cc1-Pad1)*%
X83820000Y-91895000D02*
X83820000Y-94337500D01*
%TO.N,Net-(Cc2-Pad1)*%
X88900000Y-94337500D02*
X88900000Y-91895000D01*
%TO.N,Net-(Cc3-Pad1)*%
X93980000Y-91895000D02*
X93980000Y-94337500D01*
%TO.N,Net-(JP_Rfb1-A)*%
X102870000Y-80010000D02*
X101600000Y-81280000D01*
X101600000Y-83820000D02*
X101600000Y-88900000D01*
X101550000Y-83820000D02*
X104855000Y-83820000D01*
X101600000Y-81280000D02*
X101600000Y-83770000D01*
X101600000Y-83770000D02*
X101550000Y-83820000D01*
D28*
%TO.N,GND*%
X81280000Y-73660000D02*
X88740000Y-73660000D01*
D27*
X99775000Y-81280000D02*
X99775000Y-78740000D01*
D28*
X88900000Y-73820000D02*
X92981250Y-73820000D01*
D27*
X93980000Y-96162500D02*
X96520000Y-93622500D01*
X100330000Y-84325000D02*
X100330000Y-88900000D01*
X99825000Y-83820000D02*
X99825000Y-81330000D01*
D29*
X131320000Y-81280000D02*
X132085000Y-81280000D01*
D28*
X124460000Y-74420000D02*
X131320000Y-81280000D01*
X78740000Y-73660000D02*
X81280000Y-73660000D01*
X93141250Y-73660000D02*
X93141250Y-71551250D01*
X88740000Y-73660000D02*
X88900000Y-73820000D01*
D27*
X99060000Y-88900000D02*
X100330000Y-88900000D01*
D28*
X143510000Y-82550000D02*
X143510000Y-90170000D01*
D27*
X83820000Y-96162500D02*
X88900000Y-96162500D01*
X99825000Y-83820000D02*
X100330000Y-84325000D01*
D28*
X93141250Y-71551250D02*
X95250000Y-69442500D01*
X131320000Y-81280000D02*
X131922500Y-81280000D01*
X132765000Y-81960000D02*
X132085000Y-81280000D01*
D27*
X97751852Y-78740000D02*
X93141250Y-74129398D01*
X93141250Y-74129398D02*
X93141250Y-73660000D01*
X99775000Y-78740000D02*
X97751852Y-78740000D01*
X88900000Y-99060000D02*
X88900000Y-96162500D01*
D28*
X92981250Y-73820000D02*
X93141250Y-73660000D01*
X132765000Y-88900000D02*
X132765000Y-81960000D01*
D27*
X99825000Y-81330000D02*
X99775000Y-81280000D01*
X96520000Y-93622500D02*
X96520000Y-91440000D01*
X88900000Y-96162500D02*
X93980000Y-96162500D01*
X96520000Y-91440000D02*
X99060000Y-88900000D01*
D28*
%TO.N,VCC*%
X95250000Y-67717500D02*
X98197500Y-67717500D01*
D27*
X96520000Y-76200000D02*
X96520000Y-73660000D01*
X104140000Y-93850000D02*
X105540000Y-93850000D01*
X105540000Y-93850000D02*
X108765000Y-90625000D01*
X96520000Y-73660000D02*
X99060000Y-73660000D01*
D28*
X80820000Y-66850000D02*
X78740000Y-66850000D01*
X98197500Y-67717500D02*
X101600000Y-71120000D01*
X88740000Y-68580000D02*
X88900000Y-68420000D01*
X82550000Y-68580000D02*
X88740000Y-68580000D01*
X89310000Y-68420000D02*
X90012500Y-67717500D01*
X88900000Y-68420000D02*
X89310000Y-68420000D01*
D27*
X108765000Y-90625000D02*
X111760000Y-90625000D01*
D28*
X81280000Y-67310000D02*
X82550000Y-68580000D01*
D27*
X89077995Y-68580000D02*
X82550000Y-68580000D01*
D28*
X90012500Y-67717500D02*
X95250000Y-67717500D01*
X81280000Y-67310000D02*
X80820000Y-66850000D01*
D27*
X99060000Y-73660000D02*
X101600000Y-71120000D01*
D28*
%TO.N,/out*%
X142370000Y-71120000D02*
X142940000Y-71690000D01*
D27*
X106680000Y-83820000D02*
X110490000Y-83820000D01*
X125730000Y-86360000D02*
X119380000Y-86360000D01*
D28*
X140620000Y-71120000D02*
X142370000Y-71120000D01*
X137322500Y-81280000D02*
X140620000Y-77982500D01*
X143510000Y-72260000D02*
X143510000Y-80010000D01*
D27*
X140620000Y-87980000D02*
X135890000Y-92710000D01*
X135890000Y-92710000D02*
X132080000Y-92710000D01*
X110490000Y-83820000D02*
X113030000Y-86360000D01*
X140620000Y-87980000D02*
X140620000Y-77982500D01*
D28*
X140620000Y-77982500D02*
X140620000Y-71120000D01*
X142370000Y-71120000D02*
X143510000Y-72260000D01*
X135890000Y-82712500D02*
X137322500Y-81280000D01*
D27*
X119380000Y-86360000D02*
X118110000Y-86360000D01*
X132080000Y-92710000D02*
X125730000Y-86360000D01*
D28*
X135890000Y-88900000D02*
X135890000Y-82712500D01*
D27*
X144780000Y-69850000D02*
X142940000Y-71690000D01*
D28*
%TO.N,/sen*%
X112402500Y-72722500D02*
X118442500Y-72722500D01*
X110800000Y-71120000D02*
X112402500Y-72722500D01*
%TO.N,Net-(JP_L1-B)*%
X121920000Y-66040000D02*
X123190000Y-67310000D01*
X123190000Y-67310000D02*
X128270000Y-67310000D01*
D27*
%TO.N,/ith*%
X102870000Y-86360000D02*
X102870000Y-88900000D01*
%TO.N,/gate*%
X116840000Y-78740000D02*
X116840000Y-77150000D01*
X114300000Y-78740000D02*
X116840000Y-78740000D01*
X116840000Y-77150000D02*
X120317500Y-73672500D01*
%TO.N,/drv*%
X104140000Y-96520000D02*
X109220000Y-96520000D01*
X101600000Y-93850000D02*
X101600000Y-93473249D01*
X112560000Y-82080000D02*
X114300000Y-83820000D01*
X112560000Y-78825000D02*
X112560000Y-82080000D01*
X114300000Y-83820000D02*
X114300000Y-91440000D01*
X101600000Y-93473249D02*
X101600000Y-96520000D01*
X114300000Y-91440000D02*
X109220000Y-96520000D01*
X112475000Y-78740000D02*
X112560000Y-78825000D01*
%TD*%
M02*
