M48
; DRILL file {KiCad 7.0.2} date Thu May 11 17:40:02 2023
; FORMAT={-:-/ absolute / inch / decimal}
; #@! TF.CreationDate,2023-05-11T17:40:02+02:00
; #@! TF.GenerationSoftware,Kicad,Pcbnew,7.0.2
; #@! TF.FileFunction,Plated,1,2,PTH
FMAT,2
INCH
; #@! TA.AperFunction,Plated,PTH,ViaDrill
T1C0.0157
; #@! TA.AperFunction,Plated,PTH,ComponentDrill
T2C0.0394
%
G90
G05
T1
X3.8Y-3.0
X3.85Y-3.4
X3.85Y-3.75
X4.0Y-3.8
X4.05Y-3.4
X4.1Y-3.8
X4.25Y-3.6
X4.3Y-3.35
X4.45Y-3.4
X4.55Y-3.45
X4.65Y-3.4
T2
X3.1Y-2.6319
X3.1Y-2.7319
X3.1Y-2.9
X3.3Y-3.15
X3.3Y-3.3
X3.3Y-3.4
X3.35Y-2.55
X3.5Y-3.3
X3.5Y-3.4
X3.5Y-3.9
X3.7Y-3.3
X3.7Y-3.4
X3.7Y-3.9
X4.15Y-3.05
X4.15Y-3.15
X4.25Y-3.45
X4.3Y-3.1
X4.3Y-3.8
X4.6Y-3.1
X4.8Y-2.6
X4.85Y-3.3
X5.05Y-2.8
X5.15Y-2.8
X5.65Y-3.15
X5.65Y-3.25
X5.65Y-3.55
X5.7Y-2.75
T0
M30
